<svg width="14" height="14" viewBox="0 0 14 14" fill="none" xmlns="http://www.w3.org/2000/svg">
<path d="M14 0V10.7809C14.0015 11.1881 13.7977 11.5687 13.4582 11.7935C13.1186 12.0183 12.6886 12.0571 12.3143 11.8969C11.9398 11.7366 11.6712 11.3986 11.5996 10.9977L11.5807 10.7808L11.5784 4.41331C11.5787 4.36578 11.5503 4.32286 11.5065 4.30427C11.4626 4.28569 11.412 4.29523 11.3779 4.32861L2.06523 13.6442C1.86523 13.8448 1.60093 13.969 1.3187 13.995C1.03646 14.0208 0.754058 13.9466 0.520833 13.7856L0.355699 13.6442C0.154875 13.444 0.0308563 13.1799 0.00503702 12.8977C-0.0207856 12.6154 0.0532276 12.333 0.214417 12.1L0.355867 11.9325L9.66391 2.62202C9.69862 2.58847 9.70947 2.53732 9.69138 2.49259C9.67312 2.44802 9.62953 2.41892 9.58134 2.41924H3.21737C2.93447 2.41941 2.66031 2.32057 2.44283 2.13967C2.22523 1.95876 2.07802 1.70729 2.02671 1.42904L2.00779 1.20736C2.00779 0.613186 2.43462 0.120477 2.99812 0.0166984L3.21984 0.000252859L14 0Z" fill="black"/>
</svg>
